<?xml version="1.0" encoding="UTF-8"?>
<svg id="Layer_1" xmlns="http://www.w3.org/2000/svg" version="1.1" viewBox="0 0 340 160">
  <!-- Generator: Adobe Illustrator 29.2.1, SVG Export Plug-In . SVG Version: 2.1.0 Build 116)  -->
  <g fill="#FFD700">
    <path d="M15.25,99.21v-47.74h13.33v8.23l-2.18,8.09,1.84,8.16v23.26h-12.99ZM35.86,85.61c-2,0-3.88-.33-5.64-.99-1.77-.66-3.26-1.58-4.49-2.75s-2.02-2.54-2.38-4.08v-18.5c.36-1.54,1.16-2.96,2.38-4.25s2.72-2.32,4.49-3.09c1.77-.77,3.65-1.16,5.64-1.16,3.31,0,6.2.74,8.67,2.21,2.47,1.47,4.4,3.53,5.78,6.15,1.38,2.63,2.07,5.64,2.07,9.04s-.69,6.4-2.07,9.01c-1.38,2.61-3.31,4.66-5.78,6.15-2.47,1.5-5.36,2.24-8.67,2.24ZM33.34,73.92c1.09,0,2.06-.25,2.92-.75.86-.5,1.53-1.18,2.01-2.04.48-.86.71-1.84.71-2.92s-.24-2.12-.71-2.96-1.13-1.51-1.97-2.01c-.84-.5-1.8-.75-2.89-.75s-2.05.24-2.89.71c-.84.48-1.5,1.15-1.97,2.01-.48.86-.71,1.86-.71,2.99s.23,2.06.68,2.92c.45.86,1.1,1.54,1.94,2.04.84.5,1.8.75,2.89.75Z"/>
    <path d="M57.14,84.93v-33.46h13.33v33.46h-13.33ZM70.47,66.84l-6.19-5.51c1.72-3.63,3.73-6.29,6.02-7.99,2.29-1.7,5.16-2.55,8.6-2.55,1.54,0,2.87.18,3.98.54,1.11.36,2.01.88,2.69,1.56l-7.48,10.61c-.32-.36-.78-.67-1.39-.92-.61-.25-1.33-.37-2.14-.37-1.36,0-2.38.4-3.06,1.19s-1.02,1.94-1.02,3.43Z"/>
    <path d="M103.79,85.75c-3.67,0-6.95-.76-9.83-2.28-2.88-1.52-5.15-3.61-6.8-6.29-1.66-2.67-2.48-5.69-2.48-9.04s.82-6.35,2.45-8.98c1.63-2.63,3.89-4.7,6.77-6.22,2.88-1.52,6.15-2.28,9.83-2.28s6.94.76,9.79,2.28c2.86,1.52,5.11,3.59,6.77,6.22,1.65,2.63,2.48,5.62,2.48,8.98s-.82,6.37-2.45,9.04c-1.63,2.68-3.88,4.77-6.73,6.29s-6.12,2.28-9.79,2.28ZM103.72,74.05c1.13,0,2.12-.24,2.96-.71.84-.48,1.48-1.16,1.94-2.04.45-.88.68-1.92.68-3.09s-.24-2.21-.71-3.09c-.48-.88-1.12-1.56-1.94-2.04-.82-.48-1.79-.71-2.92-.71s-2.05.25-2.89.75c-.84.5-1.5,1.19-1.97,2.07s-.71,1.92-.71,3.09.24,2.14.71,3.03,1.13,1.56,1.97,2.04c.84.48,1.8.71,2.89.71Z"/>
    <path d="M141.66,100.3c-3.76,0-7.1-.62-10-1.87-2.9-1.25-5.15-3-6.73-5.27l7.89-7.82c1.04,1.13,2.2,2.03,3.47,2.69,1.27.66,2.81.99,4.62.99,2.18,0,3.89-.52,5.13-1.56,1.25-1.04,1.87-2.56,1.87-4.56v-8.84l2.18-7.21-1.84-7.14v-8.23h12.99v30.87c0,3.67-.86,6.84-2.58,9.52-1.72,2.67-4.06,4.75-7,6.22-2.95,1.47-6.28,2.21-10,2.21ZM141.05,83.57c-3.13,0-5.89-.72-8.3-2.18-2.4-1.45-4.28-3.42-5.64-5.92-1.36-2.49-2.04-5.26-2.04-8.3s.68-5.86,2.04-8.33c1.36-2.47,3.24-4.43,5.64-5.88,2.4-1.45,5.17-2.18,8.3-2.18,1.95,0,3.75.33,5.41.99,1.65.66,3.04,1.58,4.15,2.75,1.11,1.18,1.82,2.54,2.14,4.08v17.14c-.32,1.54-1.03,2.9-2.14,4.08-1.11,1.18-2.49,2.1-4.15,2.75-1.66.66-3.46.99-5.41.99ZM143.5,72.22c1.09,0,2.02-.25,2.79-.75.77-.5,1.36-1.13,1.77-1.9.41-.77.61-1.59.61-2.45s-.2-1.68-.61-2.45c-.41-.77-.99-1.4-1.73-1.9-.75-.5-1.67-.75-2.75-.75s-1.95.25-2.72.75c-.77.5-1.36,1.15-1.77,1.94s-.61,1.6-.61,2.41c0,.77.2,1.55.61,2.35.41.79.99,1.45,1.73,1.97.75.52,1.64.78,2.69.78Z"/>
    <path d="M167.98,84.93v-33.46h13.33v33.46h-13.33ZM181.31,66.84l-6.19-5.51c1.72-3.63,3.73-6.29,6.02-7.99s5.16-2.55,8.6-2.55c1.54,0,2.87.18,3.98.54,1.11.36,2.01.88,2.69,1.56l-7.48,10.61c-.32-.36-.78-.67-1.39-.92-.61-.25-1.33-.37-2.14-.37-1.36,0-2.38.4-3.06,1.19s-1.02,1.94-1.02,3.43Z"/>
    <path d="M211.7,85.61c-3.13,0-5.89-.75-8.3-2.24-2.4-1.5-4.28-3.55-5.64-6.15-1.36-2.61-2.04-5.61-2.04-9.01s.68-6.41,2.04-9.04c1.36-2.63,3.24-4.68,5.64-6.15,2.4-1.47,5.17-2.21,8.3-2.21,1.95,0,3.75.33,5.41.99,1.65.66,3.04,1.58,4.15,2.75,1.11,1.18,1.82,2.54,2.14,4.08v19.18c-.32,1.54-1.03,2.9-2.14,4.08-1.11,1.18-2.49,2.1-4.15,2.75-1.66.66-3.46.99-5.41.99ZM214.69,73.92c1.68,0,3.03-.53,4.05-1.6,1.02-1.07,1.53-2.44,1.53-4.11,0-1.13-.23-2.12-.68-2.96-.45-.84-1.1-1.51-1.94-2.01-.84-.5-1.8-.75-2.89-.75s-2.05.25-2.89.75-1.51,1.18-2.01,2.04c-.5.86-.75,1.84-.75,2.92s.24,2.06.71,2.92c.48.86,1.14,1.54,2.01,2.04.86.5,1.81.75,2.86.75ZM219.86,84.93v-8.98l1.84-8.16-1.84-8.09v-8.23h12.99v33.46h-12.99Z"/>
    <path d="M239.65,84.93v-33.46h13.33v33.46h-13.33ZM260.25,84.93v-19.18c0-1.13-.34-2.03-1.02-2.69-.68-.66-1.54-.99-2.58-.99-.73,0-1.37.15-1.94.44-.57.29-1,.71-1.29,1.26s-.44,1.2-.44,1.97l-5.17-1.9c0-2.72.6-5.05,1.8-7,1.2-1.95,2.82-3.44,4.86-4.49,2.04-1.04,4.35-1.56,6.94-1.56,2.27,0,4.32.54,6.15,1.63s3.3,2.6,4.39,4.52,1.63,4.21,1.63,6.83v21.15h-13.33ZM280.86,84.93v-19.18c0-1.13-.34-2.03-1.02-2.69-.68-.66-1.54-.99-2.58-.99-.73,0-1.37.15-1.94.44-.57.29-1,.71-1.29,1.26-.3.54-.44,1.2-.44,1.97l-7.82.07c0-3.13.62-5.81,1.87-8.06,1.25-2.24,2.98-3.97,5.2-5.17,2.22-1.2,4.76-1.8,7.62-1.8,2.67,0,5.04.57,7.11,1.7,2.06,1.13,3.68,2.77,4.86,4.9,1.18,2.13,1.77,4.69,1.77,7.68v19.86h-13.33Z"/>
    <path d="M300.24,73.17v-11.15h25.09v11.15h-25.09Z"/>
  </g>
  <g fill="#FFD700">
    <path d="M29.48,141.06c-2.98,0-5.61-.58-7.9-1.74-2.29-1.16-4.1-2.77-5.43-4.84-1.32-2.07-1.98-4.42-1.98-7.07v-17.61h12.15v17.73c0,.62.13,1.18.4,1.67.27.5.64.88,1.12,1.15.48.27,1.02.4,1.64.4.87,0,1.6-.3,2.2-.9s.9-1.37.9-2.33v-17.73h12.15v17.61c0,2.69-.65,5.05-1.95,7.1-1.3,2.05-3.1,3.65-5.39,4.8-2.29,1.16-4.93,1.74-7.91,1.74Z"/>
    <path d="M47.27,119.73v-9.92h25.17v9.92h-25.17ZM53.78,140.32v-43.03h12.15v43.03h-12.15Z"/>
    <path d="M84.66,140.32l-11.97-30.5h12.9l7.01,25.98h-4.4l6.94-25.98h12.83l-11.97,30.5h-11.35Z"/>
    <path d="M125.95,141.06c-3.56,0-6.68-.67-9.36-2.02-2.69-1.34-4.78-3.22-6.29-5.64-1.51-2.42-2.26-5.2-2.26-8.34s.73-5.85,2.2-8.25c1.47-2.4,3.48-4.29,6.04-5.67,2.56-1.38,5.46-2.08,8.68-2.08s5.99.65,8.43,1.95c2.44,1.3,4.35,3.11,5.74,5.42,1.38,2.32,2.08,4.96,2.08,7.94,0,.62-.03,1.27-.09,1.95-.06.68-.2,1.48-.4,2.39l-27.53.19v-7.44l23-.19-5.64,3.29c0-1.65-.2-3.01-.59-4.06-.39-1.05-.98-1.85-1.77-2.39s-1.78-.81-2.98-.81-2.32.31-3.22.93c-.91.62-1.6,1.51-2.08,2.67-.48,1.16-.71,2.56-.71,4.21s.26,3.11.78,4.25c.52,1.14,1.27,2,2.26,2.57.99.58,2.23.87,3.72.87s2.72-.24,3.81-.71c1.1-.47,2.1-1.23,3.01-2.26l6.08,6.01c-1.53,1.74-3.37,3.04-5.52,3.91-2.15.87-4.61,1.3-7.38,1.3Z"/>
    <path d="M160.3,141.06c-3.31,0-6.28-.68-8.93-2.05-2.65-1.36-4.73-3.25-6.26-5.67-1.53-2.42-2.29-5.16-2.29-8.22s.77-5.86,2.33-8.28c1.55-2.42,3.66-4.32,6.32-5.7,2.67-1.38,5.67-2.08,9.02-2.08,2.4,0,4.56.37,6.48,1.12,1.92.74,3.71,1.88,5.36,3.41l-7.63,7.63c-.54-.5-1.14-.87-1.8-1.12-.66-.25-1.47-.37-2.42-.37s-1.89.22-2.7.65c-.81.43-1.46,1.04-1.95,1.83s-.74,1.71-.74,2.79.25,2.02.74,2.82c.5.81,1.16,1.44,1.98,1.89.83.46,1.71.68,2.67.68,1.07,0,1.96-.17,2.67-.5.7-.33,1.32-.79,1.86-1.36l7.63,7.63c-1.78,1.65-3.64,2.88-5.58,3.69-1.94.81-4.2,1.21-6.76,1.21Z"/>
    <path d="M176.17,140.32v-45.38h12.15v45.38h-12.15ZM195.82,140.32l-8.49-16.06,8.43-14.45h13.08l-10.91,16.31.31-3.97,11.22,18.17h-13.64Z"/>
    <path d="M212.13,140.32v-45.38h12.15v45.38h-12.15Z"/>
    <path d="M242.82,140.94c-2.85,0-5.37-.68-7.56-2.05s-3.91-3.23-5.15-5.61c-1.24-2.38-1.86-5.12-1.86-8.21s.62-5.85,1.86-8.25c1.24-2.4,2.96-4.27,5.15-5.61,2.19-1.34,4.71-2.02,7.56-2.02,1.78,0,3.42.3,4.93.9,1.51.6,2.77,1.44,3.78,2.51,1.01,1.08,1.66,2.32,1.95,3.72v17.48c-.29,1.41-.94,2.65-1.95,3.72-1.01,1.08-2.27,1.91-3.78,2.51s-3.15.9-4.93.9ZM245.55,130.27c1.53,0,2.76-.49,3.69-1.46.93-.97,1.39-2.22,1.39-3.75,0-1.03-.21-1.93-.62-2.7-.41-.76-1-1.37-1.77-1.83-.77-.46-1.64-.68-2.63-.68s-1.87.23-2.63.68c-.77.46-1.38,1.07-1.83,1.86-.46.79-.68,1.67-.68,2.67s.22,1.88.65,2.67,1.04,1.41,1.83,1.86c.78.46,1.65.68,2.6.68ZM250.26,140.32v-8.18l1.67-7.44-1.67-7.38v-7.5h11.84v30.5h-11.84Z"/>
    <path d="M267.93,140.32v-30.5h12.15v30.5h-12.15ZM280.08,123.82l-5.64-5.02c1.57-3.31,3.4-5.74,5.49-7.29,2.09-1.55,4.7-2.33,7.84-2.33,1.4,0,2.61.17,3.63.5,1.01.33,1.83.81,2.45,1.43l-6.82,9.67c-.29-.33-.71-.61-1.27-.84-.56-.23-1.21-.34-1.95-.34-1.24,0-2.17.36-2.79,1.08-.62.72-.93,1.77-.93,3.13Z"/>
    <path d="M310.08,141.06c-3.56,0-6.68-.67-9.36-2.02-2.69-1.34-4.78-3.22-6.29-5.64s-2.26-5.2-2.26-8.34.73-5.85,2.2-8.25c1.47-2.4,3.48-4.29,6.04-5.67,2.56-1.38,5.46-2.08,8.68-2.08s5.99.65,8.43,1.95,4.35,3.11,5.74,5.42c1.38,2.32,2.08,4.96,2.08,7.94,0,.62-.03,1.27-.09,1.95-.06.68-.2,1.48-.4,2.39l-27.53.19v-7.44l23-.19-5.64,3.29c0-1.65-.2-3.01-.59-4.06-.39-1.05-.98-1.85-1.77-2.39s-1.78-.81-2.98-.81-2.32.31-3.22.93c-.91.62-1.6,1.51-2.08,2.67-.48,1.16-.71,2.56-.71,4.21s.26,3.11.77,4.25c.52,1.14,1.27,2,2.26,2.57.99.58,2.23.87,3.72.87s2.72-.24,3.81-.71c1.09-.47,2.1-1.23,3.01-2.26l6.08,6.01c-1.53,1.74-3.37,3.04-5.52,3.91-2.15.87-4.61,1.3-7.38,1.3Z"/>
  </g>
  <g fill="#FFFFFF">
    <path d="M15.25,40.66v-21.42h2.7v10.65l-.51,3.45.51,3.48v3.84h-2.7ZM22.75,40.96c-1.08,0-2.06-.22-2.92-.67-.87-.45-1.57-1.08-2.08-1.88-.52-.8-.81-1.71-.87-2.73v-4.29c.06-1.04.35-1.95.88-2.75.53-.79,1.23-1.41,2.1-1.86s1.83-.67,2.9-.67c1.3,0,2.48.33,3.52.99,1.05.66,1.88,1.55,2.48,2.67.6,1.12.9,2.38.9,3.78s-.3,2.66-.9,3.78-1.42,2-2.48,2.66c-1.05.65-2.23.97-3.52.97ZM22.3,38.41c.9,0,1.69-.21,2.37-.63.68-.42,1.22-1,1.62-1.73.4-.73.6-1.58.6-2.54s-.2-1.78-.6-2.52c-.4-.74-.94-1.31-1.62-1.72-.68-.41-1.46-.62-2.34-.62s-1.69.21-2.37.62c-.68.41-1.21.98-1.59,1.72-.38.74-.57,1.59-.57,2.55s.19,1.78.56,2.5c.37.73.9,1.31,1.59,1.73.69.42,1.48.63,2.35.63Z"/>
    <path d="M40.06,40.66v-21.42h2.7v21.42h-2.7Z"/>
    <path d="M56.51,23.56c-.5,0-.91-.17-1.23-.5-.32-.33-.48-.74-.48-1.24s.16-.89.48-1.22c.32-.33.73-.49,1.23-.49s.91.17,1.23.49c.32.33.48.74.48,1.22s-.16.92-.48,1.24c-.32.33-.73.5-1.23.5ZM55.16,40.66v-14.25h2.7v14.25h-2.7Z"/>
    <path d="M102.64,28.87v-2.46h10.74v2.46h-10.74ZM106.15,40.66v-16.38c0-1.06.23-1.99.69-2.78.46-.79,1.1-1.42,1.91-1.88.81-.46,1.75-.69,2.83-.69.82,0,1.53.14,2.13.42s1.15.69,1.65,1.23l-1.77,1.74c-.26-.28-.55-.5-.87-.65-.32-.15-.71-.22-1.17-.22-.86,0-1.53.25-2,.75s-.7,1.19-.7,2.07v16.38h-2.7Z"/>
    <path d="M124.18,40.66v-14.25h2.7v14.25h-2.7ZM126.88,32.53l-1.02-.45c0-1.82.42-3.27,1.26-4.35.84-1.08,2.05-1.62,3.63-1.62.72,0,1.37.12,1.95.38s1.12.67,1.62,1.24l-1.77,1.83c-.3-.32-.63-.55-.99-.69-.36-.14-.78-.21-1.26-.21-1,0-1.82.32-2.46.96-.64.64-.96,1.61-.96,2.91Z"/>
    <path d="M150.46,40.96c-1.3,0-2.48-.33-3.54-.97-1.06-.65-1.9-1.54-2.5-2.66-.61-1.12-.92-2.38-.92-3.78s.3-2.66.92-3.78c.61-1.12,1.44-2.01,2.49-2.67,1.05-.66,2.23-.99,3.55-.99,1.08,0,2.04.22,2.89.67.85.45,1.54,1.07,2.06,1.86.52.79.81,1.71.87,2.75v4.29c-.06,1.02-.35,1.93-.86,2.73s-1.19,1.42-2.04,1.88c-.85.45-1.83.67-2.92.67ZM150.91,38.41c1.34,0,2.42-.46,3.24-1.37.82-.91,1.23-2.07,1.23-3.5,0-.98-.19-1.83-.55-2.56-.37-.73-.9-1.3-1.58-1.71-.68-.41-1.47-.62-2.37-.62s-1.7.21-2.38.63c-.69.42-1.23,1-1.62,1.72-.39.73-.58,1.57-.58,2.5s.2,1.81.58,2.54c.39.73.93,1.31,1.63,1.73s1.5.63,2.4.63ZM155.2,40.66v-3.84l.51-3.48-.51-3.45v-3.48h2.73v14.25h-2.73Z"/>
    <path d="M170.5,40.66v-14.25h2.7v14.25h-2.7ZM180.13,40.66v-8.61c0-1.06-.33-1.89-.98-2.5-.65-.61-1.46-.92-2.44-.92-.66,0-1.25.14-1.77.42-.52.28-.94.67-1.26,1.17-.32.5-.48,1.1-.48,1.8l-1.11-.54c0-1.08.23-2.02.71-2.82.47-.8,1.11-1.42,1.93-1.88s1.74-.67,2.76-.67,1.91.22,2.71.66c.81.44,1.45,1.06,1.92,1.86.47.8.7,1.75.7,2.85v9.18h-2.7ZM189.76,40.66v-8.61c0-1.06-.33-1.89-.98-2.5-.65-.61-1.46-.92-2.42-.92-.66,0-1.25.14-1.78.42-.53.28-.96.67-1.28,1.17-.32.5-.48,1.1-.48,1.8l-1.53-.54c.06-1.1.35-2.04.88-2.83.53-.79,1.21-1.41,2.05-1.86s1.76-.67,2.76-.67,1.97.22,2.79.66c.82.44,1.48,1.06,1.97,1.86.49.8.73,1.76.73,2.88v9.15h-2.73Z"/>
    <path d="M203.29,28.87v-2.46h9.72v2.46h-9.72ZM206.8,40.66v-20.22h2.7v20.22h-2.7Z"/>
    <path d="M225.67,23.56c-.5,0-.91-.17-1.23-.5-.32-.33-.48-.74-.48-1.24s.16-.89.48-1.22c.32-.33.73-.49,1.23-.49s.91.17,1.23.49c.32.33.48.74.48,1.22s-.16.92-.48,1.24c-.32.33-.73.5-1.23.5ZM224.32,40.66v-14.25h2.7v14.25h-2.7Z"/>
    <path d="M245.68,40.96c-1.32,0-2.5-.33-3.54-.97-1.04-.65-1.87-1.54-2.47-2.66-.61-1.12-.92-2.38-.92-3.78s.3-2.66.92-3.78c.61-1.12,1.43-2.01,2.47-2.67s2.22-.99,3.54-.99c1.06,0,2.02.22,2.88.67.86.45,1.56,1.07,2.08,1.86.53.79.83,1.71.89,2.75v4.29c-.06,1.02-.35,1.93-.87,2.73-.52.8-1.21,1.42-2.07,1.88-.86.45-1.83.67-2.91.67ZM246.13,38.41c.9,0,1.68-.21,2.36-.63.67-.42,1.19-1,1.57-1.73.38-.73.57-1.56.57-2.5s-.2-1.83-.58-2.55-.92-1.29-1.59-1.71c-.67-.42-1.46-.63-2.36-.63s-1.69.21-2.37.63-1.21,1-1.6,1.72c-.39.73-.58,1.57-.58,2.5s.2,1.81.58,2.54c.39.73.93,1.31,1.62,1.73.69.42,1.48.63,2.38.63ZM253.18,40.66h-2.73v-3.84l.51-3.48-.51-3.45v-10.65h2.73v21.42Z"/>
    <path d="M272.35,40.96c-1.42,0-2.7-.33-3.84-.97-1.14-.65-2.04-1.54-2.7-2.66s-.99-2.39-.99-3.81.33-2.66.98-3.78c.65-1.12,1.53-2,2.64-2.66,1.11-.65,2.35-.97,3.74-.97s2.48.3,3.49.9c1.01.6,1.8,1.43,2.37,2.49.57,1.06.86,2.26.86,3.6,0,.2-.01.42-.03.65s-.06.5-.12.79h-12.03v-2.25h10.59l-.99.87c0-.96-.17-1.78-.51-2.45-.34-.67-.82-1.19-1.44-1.56s-1.37-.56-2.25-.56-1.73.2-2.43.6c-.7.4-1.24.96-1.62,1.68s-.57,1.57-.57,2.55.2,1.88.6,2.62c.4.75.97,1.33,1.71,1.74.74.41,1.59.62,2.55.62.8,0,1.53-.14,2.21-.42.67-.28,1.25-.7,1.72-1.26l1.74,1.77c-.68.8-1.51,1.41-2.5,1.83s-2.04.63-3.17.63Z"/>
    <path d="M290.47,40.66v-14.25h2.7v14.25h-2.7ZM300.55,40.66v-8.31c0-1.08-.34-1.97-1.02-2.67-.68-.7-1.56-1.05-2.64-1.05-.72,0-1.36.16-1.92.48-.56.32-1,.76-1.32,1.32-.32.56-.48,1.2-.48,1.92l-1.11-.63c0-1.08.24-2.04.72-2.88.48-.84,1.15-1.5,2.01-2,.86-.49,1.83-.73,2.91-.73s2.04.27,2.87.81c.83.54,1.48,1.25,1.96,2.12.48.87.72,1.79.72,2.77v8.85h-2.7Z"/>
    <path d="M320.08,40.96c-.8,0-1.55-.11-2.26-.32s-1.37-.51-1.96-.9c-.6-.39-1.12-.86-1.56-1.4l1.74-1.74c.52.64,1.12,1.11,1.8,1.42s1.44.46,2.28.46,1.49-.14,1.95-.44c.46-.29.69-.69.69-1.21s-.18-.92-.55-1.21c-.37-.29-.84-.53-1.42-.72s-1.2-.38-1.84-.57c-.65-.19-1.27-.43-1.85-.73-.58-.3-1.05-.71-1.42-1.23-.37-.52-.55-1.21-.55-2.07s.21-1.6.63-2.23,1-1.12,1.75-1.46,1.65-.51,2.71-.51c1.12,0,2.12.19,2.99.58.87.39,1.58.97,2.14,1.75l-1.74,1.74c-.4-.52-.89-.92-1.48-1.2s-1.26-.42-2-.42c-.78,0-1.38.13-1.79.4-.41.27-.62.65-.62,1.12s.18.85.54,1.11c.36.26.83.48,1.43.66.59.18,1.2.37,1.84.55.64.19,1.25.45,1.83.76.58.32,1.05.75,1.42,1.29s.55,1.25.55,2.13c0,1.34-.47,2.4-1.42,3.18s-2.23,1.17-3.83,1.17Z"/>
  </g>
</svg>